<?xml version="1.0" encoding="UTF-8"?>
<svg width="239px" height="39px" viewBox="0 0 239 39" version="1.1" xmlns="http://www.w3.org/2000/svg" xmlns:xlink="http://www.w3.org/1999/xlink">
    <!-- Generator: Sketch 50.2 (55047) - http://www.bohemiancoding.com/sketch -->
    <title>logo</title>
    <desc>Created with Sketch.</desc>
    <defs></defs>
    <g id="symbols" stroke="none" stroke-width="1" fill="none" fill-rule="evenodd">
        <g id="menu" transform="translate(-444.000000, -16.000000)">
            <g id="logo" transform="translate(444.000000, 15.000000)">
                <path d="M158.5935,24.2898 C159.3065,21.6268 159.0005,19.4728 157.6825,17.8838 C156.3745,16.3128 154.2235,15.5178 151.2885,15.5178 L140.4095,15.5178 L135.7675,32.8468 L147.0105,32.8468 C149.5535,32.8468 151.9325,32.0708 154.0815,30.5408 C156.4095,28.8808 157.9275,26.7778 158.5935,24.2898 M154.5445,24.3638 C154.1525,25.8308 153.3955,26.9888 152.2315,27.9058 C151.0675,28.8248 149.7935,29.2738 148.3395,29.2738 L140.5305,29.2738 L140.6225,28.9308 L143.2055,19.2928 L143.2575,19.0898 L150.4085,19.0898 C152.0915,19.0898 153.2825,19.5688 154.0495,20.5508 C154.8085,21.5248 154.9715,22.7728 154.5445,24.3638" id="Fill-7" fill="#002D62"></path>
                <polygon id="Fill-3" fill="#002D62" points="99.5954 15.5173 94.9504 32.8463 112.5994 32.8463 113.5564 29.2733 99.7134 29.2733 99.8064 28.9323 100.6284 25.8683 100.6804 25.6663 110.1594 25.6663 111.1174 22.0933 101.6394 22.0933 101.7304 21.7513 102.3894 19.2933 102.4434 19.0903 116.0804 19.0903 117.0404 15.5173"></polygon>
                <polygon id="Fill-5" fill="#002D62" points="119.7985 15.5173 115.1535 32.8463 132.8015 32.8463 133.7575 29.2733 119.9165 29.2733 120.0085 28.9323 120.8305 25.8683 120.8825 25.6663 130.3615 25.6663 131.3195 22.0933 121.8405 22.0933 121.9335 21.7513 122.5905 19.2933 122.6445 19.0903 136.2815 19.0903 137.2395 15.5173"></polygon>
                <path d="M96.1247,21.072 C96.5747,19.39 96.4007,18.027 95.6057,17.02 C94.8207,16.022 93.5197,15.517 91.7387,15.517 L78.2777,15.517 L73.6327,32.846 L77.4387,32.846 L79.0367,26.881 L79.0907,26.678 L88.0877,26.678 C90.1507,26.678 91.8937,26.198 93.2657,25.252 C94.6807,24.279 95.6427,22.872 96.1247,21.072 M92.2047,21.258 C91.9597,22.171 91.4157,23.106 89.2357,23.106 L80.0487,23.106 L80.1407,22.764 L81.0687,19.293 L81.1237,19.09 L89.9877,19.09 C91.0537,19.09 91.7357,19.305 92.0747,19.745 C92.4267,20.203 92.3287,20.794 92.2047,21.258" id="Fill-1" fill="#002D62"></path>
                <path d="M73.0095,27.6149 C73.4305,26.0399 73.2285,24.7669 72.4055,23.8299 C71.6015,22.9079 70.2945,22.4419 68.5205,22.4419 L65.9455,22.4419 L65.9555,22.4049 L60.6575,22.4049 C59.5545,22.4049 58.8535,22.1899 58.5115,21.7449 C58.1605,21.2879 58.3085,20.7359 58.3875,20.4389 C58.5215,19.9429 58.8325,18.7799 61.3055,18.7799 L73.2485,18.7799 L74.1565,15.3899 L62.4045,15.3899 C60.3525,15.3899 58.6265,15.8319 57.2785,16.7029 C55.8655,17.6159 54.9215,18.9339 54.4685,20.6199 C54.0465,22.1959 54.2485,23.4689 55.0715,24.4069 C55.8725,25.3279 57.1815,25.7959 58.9555,25.7959 L61.5215,25.7959 L61.5135,25.8319 L66.8185,25.8319 C67.9215,25.8319 68.6235,26.0469 68.9645,26.4909 C69.3155,26.9479 69.1675,27.5009 69.0885,27.7969 C68.9555,28.2939 68.6445,29.4569 66.1715,29.4569 L53.3875,29.4569 L52.4805,32.8459 L65.0725,32.8459 C67.1235,32.8459 68.8505,32.4039 70.1985,31.5319 C71.6105,30.6209 72.5565,29.3019 73.0095,27.6149" id="Fill-9" fill="#002D62"></path>
                <polygon id="Fill-11" fill="#E86D1F" points="219.031 15.5173 218.073 19.0903 225.806 19.0903 225.714 19.4323 222.121 32.8463 225.923 32.8463 229.556 19.2933 229.609 19.0903 237.347 19.0903 238.308 15.5173"></polygon>
                <path d="M200.5466,16.8469 C199.1346,17.7589 198.1916,19.0769 197.7346,20.7649 C197.3236,22.3069 197.5216,23.4289 198.3786,24.4069 C199.1836,25.3279 200.4886,25.7959 202.2626,25.7959 L204.8386,25.7959 L204.8286,25.8319 L210.1256,25.8319 C211.2276,25.8319 211.9316,26.0469 212.2716,26.4909 C212.6216,26.9489 212.4756,27.5009 212.3966,27.7969 C212.2636,28.2939 211.9516,29.4569 209.4776,29.4569 L196.6216,29.4569 L196.5666,29.2529 L193.0466,15.7629 L192.9846,15.5169 L188.9366,15.5169 L188.6586,15.8639 L178.0956,29.1229 L178.0146,29.2219 L177.8906,29.2259 L177.3076,29.2419 C177.3076,29.2419 176.0556,29.2799 176.0526,29.2799 L176.0526,29.2739 L168.1146,29.2739 C166.4316,29.2739 165.2396,28.7959 164.4706,27.8119 C163.7116,26.8389 163.5496,25.5909 163.9766,23.9999 C164.3686,22.5329 165.1276,21.3749 166.2876,20.4569 C167.4536,19.5389 168.7286,19.0899 170.1826,19.0899 L177.2186,19.0899 L179.9066,19.0739 L180.5416,19.0699 L181.4926,15.5169 L171.5086,15.5169 C168.9676,15.5169 166.5886,16.2929 164.4416,17.8239 C162.1146,19.4809 160.5976,21.5829 159.9296,24.0719 C159.2166,26.7379 159.5226,28.8929 160.8406,30.4779 C162.1476,32.0499 164.2996,32.8469 167.2356,32.8469 L179.2726,32.8469 L179.5476,32.4959 L182.0266,29.3339 L182.1096,29.2299 L192.3286,29.2299 L192.3806,29.4349 L193.1666,32.5969 L193.2296,32.8469 L208.3796,32.8469 C210.4316,32.8469 212.1556,32.4039 213.5046,31.5329 C214.9166,30.6189 215.8616,29.3029 216.3136,27.6149 C216.7336,26.0409 216.5336,24.7669 215.7136,23.8299 C214.9076,22.9079 213.6016,22.4419 211.8276,22.4419 L209.2526,22.4419 L209.2626,22.4049 L203.9636,22.4049 C202.7646,22.4049 202.0556,22.2089 201.7326,21.7869 C201.4366,21.4039 201.5536,20.9649 201.6306,20.6749 C201.7656,20.1789 202.0766,19.0159 204.5476,19.0159 L216.4906,19.0159 L217.4236,15.5329 L205.6716,15.5329 C203.6196,15.5329 201.8956,15.9759 200.5466,16.8469 Z M184.9696,25.6559 L185.3226,25.2159 L189.4666,20.0389 L189.8066,19.6169 L189.9416,20.1409 L191.2736,25.3189 L191.3606,25.6559 L184.9696,25.6559 Z" id="Fill-13" fill="#E86D1F"></path>
                <g id="Group-17" transform="translate(0.000000, 0.701800)" fill="#002D62">
                    <path d="M37.3269,14.9971 C36.9569,15.0631 36.4499,16.0131 36.4499,16.0131 C36.4729,16.0341 37.5549,17.1681 37.6669,17.2851 C40.9589,20.7071 44.0159,24.4371 43.8959,26.0621 C43.1519,32.4561 26.3609,26.1961 24.2029,25.6181 C25.9079,23.3561 27.5849,20.7251 29.1769,17.6401 C34.0349,8.5941 38.2289,4.7771 42.5929,3.0571 C40.9529,3.6131 29.0989,5.9671 23.0959,17.5931 C15.4179,31.6291 9.8479,34.6591 3.9119,36.9321 C7.9059,34.5171 14.3349,29.5381 17.4709,21.1881 C17.4709,21.1881 12.8379,17.8171 9.3979,13.4931 C7.5119,10.9381 5.5509,7.3951 6.9489,5.0371 C8.2909,2.7691 13.6099,2.4881 22.7619,5.5591 C22.7619,5.5591 23.4069,4.7711 23.6459,4.5151 C20.3609,3.1201 6.7069,-2.2939 1.7829,1.8031 C-0.1421,3.4011 -0.5111,6.1741 0.6889,10.0321 C1.9809,13.5131 6.8429,19.0931 10.8319,22.8681 L10.9369,22.9741 C10.9369,22.9741 10.9249,23.2191 10.9289,23.2621 C10.1469,30.2951 6.3949,34.5161 0.4589,38.7361 C0.4589,38.7361 0.4739,38.7291 0.5019,38.7181 C0.4029,38.7841 0.3059,38.8491 0.2119,38.9161 C0.5539,39.0481 10.9709,40.0581 21.0989,29.3161 C27.0829,31.9581 41.9049,34.7131 45.4069,29.5121 C47.6809,26.1321 41.6989,19.6101 37.3269,14.9971" id="Fill-15"></path>
                </g>
            </g>
        </g>
    </g>
</svg>